<mxfile host="65bd71144e">
    <diagram id="l0VUk5kai10ZI0xdsEUj" name="Page-1">
        <mxGraphModel dx="1100" dy="794" grid="1" gridSize="10" guides="1" tooltips="1" connect="1" arrows="1" fold="1" page="1" pageScale="1" pageWidth="1169" pageHeight="827" math="0" shadow="0">
            <root>
                <mxCell id="0"/>
                <mxCell id="1" parent="0"/>
                <mxCell id="2" value="&lt;b&gt;PBX&lt;/b&gt;&lt;br&gt;(Postgres)" style="fontColor=#ffffff;verticalAlign=top;verticalLabelPosition=bottom;labelPosition=center;align=center;html=1;outlineConnect=0;fillColor=#0050ef;strokeColor=#001DBC;gradientDirection=north;strokeWidth=2;shape=mxgraph.networks.storage;" vertex="1" parent="1">
                    <mxGeometry x="490" y="483.8" width="50" height="50" as="geometry"/>
                </mxCell>
                <mxCell id="3" value="gRPC&lt;br&gt;Gateway" style="html=1;outlineConnect=0;fillColor=#6a00ff;strokeColor=#3700CC;gradientDirection=north;strokeWidth=2;shape=mxgraph.networks.cloud;fontColor=#ffffff;" vertex="1" parent="1">
                    <mxGeometry x="250" y="250" width="80" height="44.44" as="geometry"/>
                </mxCell>
                <mxCell id="6" style="edgeStyle=none;html=1;startArrow=classic;startFill=1;strokeColor=#f20202;" edge="1" parent="1" source="3" target="12">
                    <mxGeometry relative="1" as="geometry">
                        <mxPoint x="80" y="200" as="sourcePoint"/>
                        <mxPoint x="220" y="200" as="targetPoint"/>
                    </mxGeometry>
                </mxCell>
                <mxCell id="7" value="gRPC" style="edgeLabel;html=1;align=center;verticalAlign=middle;resizable=0;points=[];" vertex="1" connectable="0" parent="6">
                    <mxGeometry x="-0.5341" relative="1" as="geometry">
                        <mxPoint x="-29" as="offset"/>
                    </mxGeometry>
                </mxCell>
                <mxCell id="8" style="edgeStyle=orthogonalEdgeStyle;html=1;curved=1;startArrow=classic;startFill=1;strokeColor=#f20202;" edge="1" parent="1" source="18" target="17">
                    <mxGeometry relative="1" as="geometry">
                        <mxPoint x="870" y="560" as="sourcePoint"/>
                        <mxPoint x="870" y="400" as="targetPoint"/>
                    </mxGeometry>
                </mxCell>
                <mxCell id="10" style="edgeStyle=none;html=1;" edge="1" parent="1" source="15" target="2">
                    <mxGeometry relative="1" as="geometry">
                        <mxPoint x="454" y="739.8" as="sourcePoint"/>
                        <mxPoint x="584" y="739.8" as="targetPoint"/>
                    </mxGeometry>
                </mxCell>
                <mxCell id="11" value="TCP/BSON" style="edgeLabel;html=1;align=center;verticalAlign=middle;resizable=0;points=[];" vertex="1" connectable="0" parent="10">
                    <mxGeometry x="-0.5341" relative="1" as="geometry">
                        <mxPoint x="14" as="offset"/>
                    </mxGeometry>
                </mxCell>
                <mxCell id="12" value="&lt;b&gt;Authentication&lt;/b&gt;&lt;br&gt;Service" style="sketch=0;pointerEvents=1;shadow=0;dashed=0;html=1;strokeColor=#B09500;fillColor=#e3c800;labelPosition=center;verticalLabelPosition=bottom;verticalAlign=top;outlineConnect=0;align=center;shape=mxgraph.office.services.access_services;fontColor=#f7ef18;" vertex="1" parent="1">
                    <mxGeometry x="60" y="247.72" width="59" height="49" as="geometry"/>
                </mxCell>
                <mxCell id="13" style="edgeStyle=none;html=1;startArrow=classic;startFill=1;strokeColor=#f20202;" edge="1" parent="1" source="16" target="18">
                    <mxGeometry relative="1" as="geometry">
                        <mxPoint x="290" y="140" as="sourcePoint"/>
                        <mxPoint x="290" y="210" as="targetPoint"/>
                    </mxGeometry>
                </mxCell>
                <mxCell id="14" value="REST&lt;br&gt;HTTP / JSON" style="edgeLabel;html=1;align=center;verticalAlign=middle;resizable=0;points=[];" vertex="1" connectable="0" parent="13">
                    <mxGeometry x="-0.5341" relative="1" as="geometry">
                        <mxPoint x="1" y="7" as="offset"/>
                    </mxGeometry>
                </mxCell>
                <mxCell id="15" value="&lt;b&gt;PBX&lt;/b&gt;&lt;br&gt;Service" style="sketch=0;pointerEvents=1;shadow=0;dashed=0;html=1;strokeColor=#C73500;fillColor=#fa6800;labelPosition=center;verticalLabelPosition=bottom;verticalAlign=top;outlineConnect=0;align=center;shape=mxgraph.office.services.central_management_service;fontColor=#FF8000;" vertex="1" parent="1">
                    <mxGeometry x="330" y="481.8" width="51" height="54" as="geometry"/>
                </mxCell>
                <mxCell id="16" value="" style="sketch=0;pointerEvents=1;shadow=0;dashed=0;html=1;strokeColor=none;labelPosition=center;verticalLabelPosition=bottom;verticalAlign=top;outlineConnect=0;align=center;shape=mxgraph.office.users.users;fillColor=#2072B8;fontColor=#f7ef18;" vertex="1" parent="1">
                    <mxGeometry x="267" y="40" width="46" height="50" as="geometry"/>
                </mxCell>
                <mxCell id="17" value="WEB" style="sketch=0;pointerEvents=1;shadow=0;dashed=0;html=1;strokeColor=#2D7600;fillColor=#60a917;labelPosition=center;verticalLabelPosition=bottom;verticalAlign=top;outlineConnect=0;align=center;shape=mxgraph.office.services.web_services;fontColor=#1ac71a;" vertex="1" parent="1">
                    <mxGeometry x="410" y="244.22" width="60" height="56" as="geometry"/>
                </mxCell>
                <mxCell id="18" value="" style="sketch=0;pointerEvents=1;shadow=0;dashed=0;html=1;strokeColor=#0e8088;fillColor=#b0e3e6;labelPosition=center;verticalLabelPosition=bottom;verticalAlign=top;outlineConnect=0;align=center;shape=mxgraph.office.sites.site_collection;" vertex="1" parent="1">
                    <mxGeometry x="264" y="170" width="52" height="40" as="geometry"/>
                </mxCell>
                <mxCell id="20" style="edgeStyle=none;html=1;startArrow=classic;startFill=1;strokeColor=#f20202;" edge="1" parent="1" source="17" target="3">
                    <mxGeometry relative="1" as="geometry">
                        <mxPoint x="551" y="350" as="sourcePoint"/>
                        <mxPoint x="420" y="350" as="targetPoint"/>
                    </mxGeometry>
                </mxCell>
                <mxCell id="22" style="edgeStyle=none;html=1;startArrow=classic;startFill=1;strokeColor=#f20202;" edge="1" parent="1" source="3" target="18">
                    <mxGeometry relative="1" as="geometry">
                        <mxPoint x="420" y="282.22" as="sourcePoint"/>
                        <mxPoint x="340" y="282.22" as="targetPoint"/>
                    </mxGeometry>
                </mxCell>
                <mxCell id="23" value="&lt;b&gt;CDR&lt;/b&gt;&lt;br&gt;Service" style="sketch=0;pointerEvents=1;shadow=0;dashed=0;html=1;strokeColor=#432D57;fillColor=#76608a;labelPosition=center;verticalLabelPosition=bottom;verticalAlign=top;outlineConnect=0;align=center;shape=mxgraph.office.services.central_management_service;fontColor=#76608A;" vertex="1" parent="1">
                    <mxGeometry x="200" y="481.8" width="51" height="54" as="geometry"/>
                </mxCell>
                <mxCell id="24" value="&lt;b&gt;CDR&lt;/b&gt;&lt;br&gt;(Postgres)" style="fontColor=#ffffff;verticalAlign=top;verticalLabelPosition=bottom;labelPosition=center;align=center;html=1;outlineConnect=0;fillColor=#0050ef;strokeColor=#001DBC;gradientDirection=north;strokeWidth=2;shape=mxgraph.networks.storage;" vertex="1" parent="1">
                    <mxGeometry x="40" y="483.8" width="50" height="50" as="geometry"/>
                </mxCell>
                <mxCell id="25" style="edgeStyle=none;html=1;" edge="1" parent="1" source="23" target="24">
                    <mxGeometry relative="1" as="geometry">
                        <mxPoint x="-20" y="699.8" as="sourcePoint"/>
                        <mxPoint x="89" y="699.8" as="targetPoint"/>
                    </mxGeometry>
                </mxCell>
                <mxCell id="26" value="TCP/BSON" style="edgeLabel;html=1;align=center;verticalAlign=middle;resizable=0;points=[];" vertex="1" connectable="0" parent="25">
                    <mxGeometry x="-0.5341" relative="1" as="geometry">
                        <mxPoint x="-14" as="offset"/>
                    </mxGeometry>
                </mxCell>
                <mxCell id="27" style="edgeStyle=orthogonalEdgeStyle;html=1;curved=1;startArrow=classic;startFill=1;strokeColor=#f20202;" edge="1" parent="1" source="3" target="23">
                    <mxGeometry relative="1" as="geometry">
                        <mxPoint x="326" y="200" as="sourcePoint"/>
                        <mxPoint x="450" y="254.22000000000003" as="targetPoint"/>
                    </mxGeometry>
                </mxCell>
                <mxCell id="29" value="gRPC" style="edgeLabel;html=1;align=center;verticalAlign=middle;resizable=0;points=[];fontColor=#76608A;" vertex="1" connectable="0" parent="27">
                    <mxGeometry x="0.2065" y="9" relative="1" as="geometry">
                        <mxPoint x="10" y="-12" as="offset"/>
                    </mxGeometry>
                </mxCell>
                <mxCell id="28" style="edgeStyle=orthogonalEdgeStyle;html=1;curved=1;startArrow=classic;startFill=1;strokeColor=#f20202;" edge="1" parent="1" source="3" target="15">
                    <mxGeometry relative="1" as="geometry">
                        <mxPoint x="300" y="304.44000000000005" as="sourcePoint"/>
                        <mxPoint x="235.5" y="402" as="targetPoint"/>
                    </mxGeometry>
                </mxCell>
                <mxCell id="30" value="gRPC" style="edgeLabel;html=1;align=center;verticalAlign=middle;resizable=0;points=[];fontColor=#76608A;" vertex="1" connectable="0" parent="28">
                    <mxGeometry x="0.15" y="-3" relative="1" as="geometry">
                        <mxPoint x="-5" y="-6" as="offset"/>
                    </mxGeometry>
                </mxCell>
                <mxCell id="31" value="&lt;b&gt;USERS&lt;/b&gt;&lt;br&gt;(Postgres)" style="fontColor=#ffffff;verticalAlign=top;verticalLabelPosition=bottom;labelPosition=center;align=center;html=1;outlineConnect=0;fillColor=#0050ef;strokeColor=#001DBC;gradientDirection=north;strokeWidth=2;shape=mxgraph.networks.storage;" vertex="1" parent="1">
                    <mxGeometry x="64.5" y="363.5" width="50" height="50" as="geometry"/>
                </mxCell>
                <mxCell id="32" style="edgeStyle=none;html=1;" edge="1" parent="1" source="12" target="31">
                    <mxGeometry relative="1" as="geometry">
                        <mxPoint x="210" y="518.8" as="sourcePoint"/>
                        <mxPoint x="100" y="518.8" as="targetPoint"/>
                    </mxGeometry>
                </mxCell>
                <mxCell id="33" value="TCP/BSON" style="edgeLabel;html=1;align=center;verticalAlign=middle;resizable=0;points=[];" vertex="1" connectable="0" parent="32">
                    <mxGeometry x="-0.5341" relative="1" as="geometry">
                        <mxPoint x="1" y="27" as="offset"/>
                    </mxGeometry>
                </mxCell>
            </root>
        </mxGraphModel>
    </diagram>
</mxfile>